REM MD5 c3e8c2d42158819350e7505c0e825a75
FILE "Tomb Raider (USA) (Rev 3).bin" BINARY
  TRACK 01 MODE2/2352
    INDEX 01 00:00:00
  TRACK 02 AUDIO
    INDEX 00 29:13:54
    INDEX 01 29:15:54
  TRACK 03 AUDIO
    INDEX 00 32:30:22
    INDEX 01 32:32:22
  TRACK 04 AUDIO
    INDEX 00 33:34:20
    INDEX 01 33:36:20
  TRACK 05 AUDIO
    INDEX 00 35:37:59
    INDEX 01 35:39:59
  TRACK 06 AUDIO
    INDEX 00 37:37:70
    INDEX 01 37:39:70
  TRACK 07 AUDIO
    INDEX 00 38:54:69
    INDEX 01 38:56:69
  TRACK 08 AUDIO
    INDEX 00 39:50:60
    INDEX 01 39:52:60
  TRACK 09 AUDIO
    INDEX 00 40:59:04
    INDEX 01 41:01:04
  TRACK 10 AUDIO
    INDEX 00 41:39:10
    INDEX 01 41:41:10
  TRACK 11 AUDIO
    INDEX 00 42:58:31
    INDEX 01 43:00:31
  TRACK 12 AUDIO
    INDEX 00 43:06:68
    INDEX 01 43:08:68
  TRACK 13 AUDIO
    INDEX 00 43:21:67
    INDEX 01 43:23:67
  TRACK 14 AUDIO
    INDEX 00 43:28:70
    INDEX 01 43:30:70
  TRACK 15 AUDIO
    INDEX 00 43:41:00
    INDEX 01 43:43:00
  TRACK 16 AUDIO
    INDEX 00 43:52:03
    INDEX 01 43:54:03
  TRACK 17 AUDIO
    INDEX 00 44:30:66
    INDEX 01 44:32:66
  TRACK 18 AUDIO
    INDEX 00 45:13:55
    INDEX 01 45:15:55
  TRACK 19 AUDIO
    INDEX 00 45:39:04
    INDEX 01 45:41:04
  TRACK 20 AUDIO
    INDEX 00 47:07:49
    INDEX 01 47:09:49
  TRACK 21 AUDIO
    INDEX 00 48:01:66
    INDEX 01 48:03:66
  TRACK 22 AUDIO
    INDEX 00 48:43:08
    INDEX 01 48:45:08
  TRACK 23 AUDIO
    INDEX 00 49:46:46
    INDEX 01 49:48:46
  TRACK 24 AUDIO
    INDEX 00 50:44:15
    INDEX 01 50:46:15
  TRACK 25 AUDIO
    INDEX 00 50:59:43
    INDEX 01 51:01:43
  TRACK 26 AUDIO
    INDEX 00 51:36:31
    INDEX 01 51:38:31
  TRACK 27 AUDIO
    INDEX 00 51:43:32
    INDEX 01 51:45:32
  TRACK 28 AUDIO
    INDEX 00 51:50:33
    INDEX 01 51:52:33
  TRACK 29 AUDIO
    INDEX 00 51:57:33
    INDEX 01 51:59:33
  TRACK 30 AUDIO
    INDEX 00 52:04:34
    INDEX 01 52:06:34
  TRACK 31 AUDIO
    INDEX 00 52:12:32
    INDEX 01 52:14:32
  TRACK 32 AUDIO
    INDEX 00 52:19:33
    INDEX 01 52:21:33
  TRACK 33 AUDIO
    INDEX 00 52:28:71
    INDEX 01 52:30:71
  TRACK 34 AUDIO
    INDEX 00 52:38:38
    INDEX 01 52:40:38
  TRACK 35 AUDIO
    INDEX 00 52:46:10
    INDEX 01 52:48:10
  TRACK 36 AUDIO
    INDEX 00 52:53:24
    INDEX 01 52:55:24
  TRACK 37 AUDIO
    INDEX 00 53:10:20
    INDEX 01 53:12:20
  TRACK 38 AUDIO
    INDEX 00 53:17:21
    INDEX 01 53:19:21
  TRACK 39 AUDIO
    INDEX 00 53:24:22
    INDEX 01 53:26:22
  TRACK 40 AUDIO
    INDEX 00 53:40:28
    INDEX 01 53:42:28
  TRACK 41 AUDIO
    INDEX 00 53:50:68
    INDEX 01 53:52:68
  TRACK 42 AUDIO
    INDEX 00 53:57:69
    INDEX 01 53:59:69
  TRACK 43 AUDIO
    INDEX 00 54:04:69
    INDEX 01 54:06:69
  TRACK 44 AUDIO
    INDEX 00 54:14:07
    INDEX 01 54:16:07
  TRACK 45 AUDIO
    INDEX 00 54:22:31
    INDEX 01 54:24:31
  TRACK 46 AUDIO
    INDEX 00 54:32:22
    INDEX 01 54:34:22
  TRACK 47 AUDIO
    INDEX 00 54:39:23
    INDEX 01 54:41:23
  TRACK 48 AUDIO
    INDEX 00 54:46:24
    INDEX 01 54:48:24
  TRACK 49 AUDIO
    INDEX 00 54:53:25
    INDEX 01 54:55:25
  TRACK 50 AUDIO
    INDEX 00 55:09:21
    INDEX 01 55:11:21
  TRACK 51 AUDIO
    INDEX 00 55:16:21
    INDEX 01 55:18:21
  TRACK 52 AUDIO
    INDEX 00 55:23:21
    INDEX 01 55:25:21
  TRACK 53 AUDIO
    INDEX 00 55:30:22
    INDEX 01 55:32:22
  TRACK 54 AUDIO
    INDEX 00 55:39:42
    INDEX 01 55:41:42
  TRACK 55 AUDIO
    INDEX 00 55:46:43
    INDEX 01 55:48:43
  TRACK 56 AUDIO
    INDEX 00 55:56:22
    INDEX 01 55:58:22
  TRACK 57 AUDIO
    INDEX 00 56:03:23
    INDEX 01 56:05:23
REM LEADOUT 59:22:23
